<mxfile host="app.diagrams.net" modified="2023-02-28T18:40:27.269Z" agent="5.0 (Windows NT 10.0; Win64; x64) AppleWebKit/537.36 (KHTML, like Gecko) Chrome/110.0.0.0 Safari/537.36" etag="hOF0vlCtRIJBHD2l1VEf" version="20.8.23" type="github">
  <diagram name="Page-1" id="13bN3LiErAZNY6PXdBP1">
    <mxGraphModel dx="1434" dy="696" grid="1" gridSize="10" guides="1" tooltips="1" connect="1" arrows="1" fold="1" page="1" pageScale="1" pageWidth="850" pageHeight="1100" math="0" shadow="0">
      <root>
        <mxCell id="0" />
        <mxCell id="1" parent="0" />
        <mxCell id="lrbJHLHanRZHTGlE7Is--7" value="" style="edgeStyle=orthogonalEdgeStyle;rounded=0;orthogonalLoop=1;jettySize=auto;html=1;" parent="1" source="lrbJHLHanRZHTGlE7Is--2" target="lrbJHLHanRZHTGlE7Is--6" edge="1">
          <mxGeometry relative="1" as="geometry" />
        </mxCell>
        <mxCell id="lrbJHLHanRZHTGlE7Is--12" value="" style="edgeStyle=orthogonalEdgeStyle;rounded=0;orthogonalLoop=1;jettySize=auto;html=1;" parent="1" source="lrbJHLHanRZHTGlE7Is--2" target="lrbJHLHanRZHTGlE7Is--11" edge="1">
          <mxGeometry relative="1" as="geometry" />
        </mxCell>
        <mxCell id="lrbJHLHanRZHTGlE7Is--2" value="Actor" style="shape=umlActor;verticalLabelPosition=bottom;verticalAlign=top;html=1;outlineConnect=0;" parent="1" vertex="1">
          <mxGeometry x="60" y="50" width="30" height="60" as="geometry" />
        </mxCell>
        <mxCell id="BtfHC1cB65NLiMPH-n7X-1" value="" style="edgeStyle=orthogonalEdgeStyle;rounded=0;orthogonalLoop=1;jettySize=auto;html=1;" edge="1" parent="1" source="lrbJHLHanRZHTGlE7Is--5" target="lrbJHLHanRZHTGlE7Is--19">
          <mxGeometry relative="1" as="geometry" />
        </mxCell>
        <mxCell id="BtfHC1cB65NLiMPH-n7X-3" value="" style="edgeStyle=orthogonalEdgeStyle;rounded=0;orthogonalLoop=1;jettySize=auto;html=1;" edge="1" parent="1" source="lrbJHLHanRZHTGlE7Is--5" target="BtfHC1cB65NLiMPH-n7X-2">
          <mxGeometry relative="1" as="geometry" />
        </mxCell>
        <mxCell id="lrbJHLHanRZHTGlE7Is--5" value="Pay Deposit" style="rounded=0;whiteSpace=wrap;html=1;" parent="1" vertex="1">
          <mxGeometry x="320" y="430" width="120" height="60" as="geometry" />
        </mxCell>
        <mxCell id="lrbJHLHanRZHTGlE7Is--15" value="" style="edgeStyle=orthogonalEdgeStyle;rounded=0;orthogonalLoop=1;jettySize=auto;html=1;" parent="1" source="lrbJHLHanRZHTGlE7Is--6" target="lrbJHLHanRZHTGlE7Is--14" edge="1">
          <mxGeometry relative="1" as="geometry" />
        </mxCell>
        <mxCell id="lrbJHLHanRZHTGlE7Is--6" value="Book a visit" style="whiteSpace=wrap;html=1;verticalAlign=top;" parent="1" vertex="1">
          <mxGeometry x="320" y="170" width="120" height="60" as="geometry" />
        </mxCell>
        <mxCell id="lrbJHLHanRZHTGlE7Is--18" value="" style="edgeStyle=orthogonalEdgeStyle;rounded=0;orthogonalLoop=1;jettySize=auto;html=1;entryX=-0.008;entryY=0.367;entryDx=0;entryDy=0;entryPerimeter=0;" parent="1" source="lrbJHLHanRZHTGlE7Is--11" target="lrbJHLHanRZHTGlE7Is--14" edge="1">
          <mxGeometry relative="1" as="geometry">
            <mxPoint x="215" y="260" as="targetPoint" />
          </mxGeometry>
        </mxCell>
        <mxCell id="lrbJHLHanRZHTGlE7Is--11" value="No Visit" style="whiteSpace=wrap;html=1;verticalAlign=top;" parent="1" vertex="1">
          <mxGeometry x="15" y="230" width="120" height="60" as="geometry" />
        </mxCell>
        <mxCell id="lrbJHLHanRZHTGlE7Is--16" value="" style="edgeStyle=orthogonalEdgeStyle;rounded=0;orthogonalLoop=1;jettySize=auto;html=1;" parent="1" source="lrbJHLHanRZHTGlE7Is--14" target="lrbJHLHanRZHTGlE7Is--5" edge="1">
          <mxGeometry relative="1" as="geometry" />
        </mxCell>
        <mxCell id="lrbJHLHanRZHTGlE7Is--14" value="Assesment" style="whiteSpace=wrap;html=1;verticalAlign=top;" parent="1" vertex="1">
          <mxGeometry x="320" y="310" width="120" height="60" as="geometry" />
        </mxCell>
        <mxCell id="lrbJHLHanRZHTGlE7Is--19" value="Charge % of deposit or flat fee of Â£45" style="text;html=1;strokeColor=none;fillColor=none;align=center;verticalAlign=middle;whiteSpace=wrap;rounded=0;" parent="1" vertex="1">
          <mxGeometry x="500" y="510" width="120" height="80" as="geometry" />
        </mxCell>
        <mxCell id="BtfHC1cB65NLiMPH-n7X-2" value="Stripe" style="whiteSpace=wrap;html=1;rounded=0;" vertex="1" parent="1">
          <mxGeometry x="500" y="430" width="120" height="60" as="geometry" />
        </mxCell>
      </root>
    </mxGraphModel>
  </diagram>
</mxfile>
